<svg xmlns="http://www.w3.org/2000/svg" color-interpolation-filters="sRGB" style="margin:auto" version="1.0" viewBox="0 0 340 250"><g fill="#FA4032" class="mojosvg mojo-g"><g class="iconsvg-imagesvg" transform="translate(52.125 101.052)"><path fill="none" d="M0 0h60v47.896H0z" class="image-rect"/><svg width="60" height="47.896" class="image-svg-svg primary" style="overflow:visible"><svg xmlns="http://www.w3.org/2000/svg" viewBox="0.003 -0.024 130.884 104.48"><path d="M79.34 99.73c-9.67 7.92-25 5.64-32.94-5C36.16 80.88 26 67 15.86 53.08 12.07 47.92 8.22 42.8 4.51 37.59-5.5 23.52 2 4 18.77.55a22.45 22.45 0 0 1 19.06 4.34C37.7 6 36.75 6.53 36.07 7.22c-7.71 7.75-9.13 20.09-3 29 5.83 8.45 12 16.69 18.06 25 5.77 7.88 11.63 15.7 17.41 23.58 3.66 4.96 7.21 9.96 10.8 14.93"/><path fill="#FA812F" d="M79.34 99.73c-3.59-5-7.14-10-10.76-14.91-5.78-7.88-11.64-15.7-17.41-23.58C45.1 53 38.94 44.71 33.11 36.26c-6.17-8.95-4.75-21.29 3-29 .68-.69 1.63-1.21 1.76-2.33h.94c2 2.8 4.28 5.42 6.3 8.23 7 9.75 14.13 19.39 21.25 29.05 6 8.12 12.07 16.18 18 24.35a23.21 23.21 0 0 1 4.56 12.92c.18 3.89-.84 7.51-1.58 11.22-2.25 3.4-4.42 6.84-8 9.03"/><path fill="#FAB12F" d="M87.29 90.69c.71-3.69 1.76-7.33 1.58-11.22a23.21 23.21 0 0 0-4.56-12.92c-5.92-8.17-12-16.23-18-24.35-7.11-9.66-14.25-19.3-21.24-29.05-2-2.81-4.28-5.43-6.3-8.23C48.37-3 63.78-1.14 71.49 9c4.83 6.35 9.51 12.86 14.23 19.26.56.75.85 1.88 2.07 2 1.35 3.74 4.28 6.38 6.52 9.51 1 2.19 2.69 3.92 4.11 5.83 7.32 9.86 7.33 20.5-.09 30.37-3.69 4.87-7.07 10.03-11.04 14.72"/><path fill="#FAB12F" d="M94.31 39.73c-2.24-3.13-5.17-5.77-6.52-9.51a40.4 40.4 0 0 1-1.13-8.85 22.13 22.13 0 0 1 44.22 0c.19 8.77-3.46 15.57-10.95 19.93-7.69 4.47-15.56 4.06-23.22-.47-.71-.41-1.4-1.15-2.4-1.1"/></svg></svg></g><g class="tp-name"><path d="M142.882 146.775h-9.84l-13.92-36.42h9.5l9.28 26.01 9.33-26.01h9.56zM173.91 115.725h-9.9v-6.84h9.9zm-.06 31.05h-9.1v-20.08h-3.96l.79-6.73h12.27zM193.407 147.345q-7.01 0-11.26-3.48-4.24-3.48-4.24-10.49 0-6.39 3.51-10.18t10.52-3.79q6.39 0 9.9 3.28 3.5 3.28 3.5 8.82v4.81h-19q.62 2.66 2.91 3.7 2.29 1.05 6.25 1.05 2.21 0 4.5-.4 2.29-.39 3.81-1.02v5.94q-1.92.91-4.58 1.33-2.65.43-5.82.43m-7.07-16.29h11.08v-1.19q0-1.98-1.18-3.14-1.19-1.16-4.02-1.16-3.28 0-4.58 1.33-1.3 1.33-1.3 4.16" data-gra="path-name"/><path fill="#FA812F" d="M226.139 147.345q-2.71 0-4.75-.71t-3.68-2.12l-.45 2.26h-7.92v-38.12h9.11v12.56q1.53-.91 3.45-1.36 1.92-.45 3.96-.45 5.88 0 9.27 3.25 3.4 3.25 3.4 10.49t-3.34 10.72q-3.34 3.48-9.05 3.48m-2.6-6.62q3.05 0 4.38-1.84t1.33-5.68q0-3.96-1.38-5.55-1.39-1.58-4.33-1.58-3.22 0-5.09 1.7v10.91q2.04 2.04 5.09 2.04" data-gra="path-name" data-index="1" data-main="1" data-type="0"/><path fill="#FAB12F" d="M252.029 147.345q-2.54 0-4.72-.91-2.18-.9-3.48-2.8-1.3-1.89-1.3-4.72 0-4.13 2.8-6.48 2.8-2.34 8.4-2.34h7.47v-.63q0-2.03-1.36-2.91-1.36-.87-5.09-.87-4.58 0-8.99 1.41v-5.88q1.98-.79 4.83-1.3 2.86-.51 6.02-.51 6.23 0 9.76 2.54 3.54 2.55 3.54 8.09v16.74h-7.98l-.45-2.26q-1.47 1.36-3.76 2.09-2.29.74-5.69.74m2.89-5.6q2.15 0 3.73-.74 1.58-.73 2.55-1.86v-3.79h-6.45q-4.02 0-4.02 3.22 0 1.47 1.02 2.32 1.02.85 3.17.85" data-gra="path-name" data-index="1" data-main="1" data-type="0"/><path fill="#FAB12F" d="M282.165 147.345q-4.41 0-6.33-1.93-1.93-1.92-1.93-6.16v-30.6h9.11v29.69q0 1.3.54 1.78.53.49 1.61.49 1.53 0 2.71-.4v6.16q-1.3.51-2.57.74-1.27.23-3.14.23" data-gra="path-name"/></g></g></svg>