<svg xmlns="http://www.w3.org/2000/svg" width="1104" height="320" fill="none"><g clip-path="url(#a)"><g filter="url(#b)"><path fill="url(#c)" fill-rule="evenodd" d="M1025.72 293.973L470.736 95.264 719.984-51.707l305.736 345.68z" clip-rule="evenodd"/></g><g filter="url(#d)"><path fill="url(#e)" fill-rule="evenodd" d="M1173.72 293.973L618.736 95.264 867.984-51.707l305.736 345.68z" clip-rule="evenodd"/></g><g filter="url(#f)"><path fill="url(#g)" fill-rule="evenodd" d="M244.715 152.973L-310.264-45.736l249.248-146.971 305.731 345.68z" clip-rule="evenodd"/></g><g filter="url(#h)" style="mix-blend-mode:plus-lighter"><path fill="url(#i)" fill-opacity=".48" fill-rule="evenodd" d="M1204.71 382.96L906 149.988l-162-41 460.71 273.972z" clip-rule="evenodd"/></g><g filter="url(#j)" opacity=".8"><path fill="#FACC15" d="M700 141.235l1.417 3.538 3.583 1.4-3.583 1.399-1.417 3.539-1.417-3.539-3.583-1.399 3.583-1.4 1.417-3.538z"/></g><g filter="url(#k)" opacity=".8"><path fill="#FEF08A" d="M673 45.432l1.417 3.539 3.583 1.4-3.583 1.399L673 55.309l-1.417-3.54L668 50.37l3.583-1.4L673 45.433z"/></g><g filter="url(#l)"><path fill="#FEF08A" d="M660 88.889l.567 1.415 1.433.56-1.433.56-.567 1.415-.567-1.415-1.433-.56 1.433-.56.567-1.415z"/></g><g filter="url(#m)"><path fill="#FEF08A" d="M719 39.506l.283.708.717.28-.717.28-.283.707-.283-.707-.717-.28.717-.28.283-.708z"/></g></g><defs><filter id="b" width="739.822" height="530.523" x="378.315" y="-144.129" color-interpolation-filters="sRGB" filterUnits="userSpaceOnUse"><feFlood flood-opacity="0" result="BackgroundImageFix"/><feBlend in="SourceGraphic" in2="BackgroundImageFix" result="shape"/><feGaussianBlur result="effect1_foregroundBlur_88_6743" stdDeviation="46.211"/></filter><filter id="d" width="739.822" height="530.523" x="526.315" y="-144.129" color-interpolation-filters="sRGB" filterUnits="userSpaceOnUse"><feFlood flood-opacity="0" result="BackgroundImageFix"/><feBlend in="SourceGraphic" in2="BackgroundImageFix" result="shape"/><feGaussianBlur result="effect1_foregroundBlur_88_6743" stdDeviation="46.211"/></filter><filter id="f" width="739.822" height="530.523" x="-402.685" y="-285.129" color-interpolation-filters="sRGB" filterUnits="userSpaceOnUse"><feFlood flood-opacity="0" result="BackgroundImageFix"/><feBlend in="SourceGraphic" in2="BackgroundImageFix" result="shape"/><feGaussianBlur result="effect1_foregroundBlur_88_6743" stdDeviation="46.211"/></filter><filter id="h" width="588.715" height="401.973" x="680" y="44.987" color-interpolation-filters="sRGB" filterUnits="userSpaceOnUse"><feFlood flood-opacity="0" result="BackgroundImageFix"/><feBlend in="SourceGraphic" in2="BackgroundImageFix" result="shape"/><feGaussianBlur result="effect1_foregroundBlur_88_6743" stdDeviation="32"/></filter><filter id="j" width="18" height="17.877" x="691" y="137.235" color-interpolation-filters="sRGB" filterUnits="userSpaceOnUse"><feFlood flood-opacity="0" result="BackgroundImageFix"/><feBlend in="SourceGraphic" in2="BackgroundImageFix" result="shape"/><feGaussianBlur result="effect1_foregroundBlur_88_6743" stdDeviation="2"/></filter><filter id="k" width="18" height="17.877" x="664" y="41.432" color-interpolation-filters="sRGB" filterUnits="userSpaceOnUse"><feFlood flood-opacity="0" result="BackgroundImageFix"/><feBlend in="SourceGraphic" in2="BackgroundImageFix" result="shape"/><feGaussianBlur result="effect1_foregroundBlur_88_6743" stdDeviation="2"/></filter><filter id="l" width="12" height="11.951" x="654" y="84.889" color-interpolation-filters="sRGB" filterUnits="userSpaceOnUse"><feFlood flood-opacity="0" result="BackgroundImageFix"/><feBlend in="SourceGraphic" in2="BackgroundImageFix" result="shape"/><feGaussianBlur result="effect1_foregroundBlur_88_6743" stdDeviation="2"/></filter><filter id="m" width="10" height="9.975" x="714" y="35.506" color-interpolation-filters="sRGB" filterUnits="userSpaceOnUse"><feFlood flood-opacity="0" result="BackgroundImageFix"/><feBlend in="SourceGraphic" in2="BackgroundImageFix" result="shape"/><feGaussianBlur result="effect1_foregroundBlur_88_6743" stdDeviation="2"/></filter><linearGradient id="c" x1="1085.09" x2="849.332" y1="139.475" y2="-170.932" gradientUnits="userSpaceOnUse"><stop stop-color="#FACC15" stop-opacity=".48"/><stop offset="1" stop-color="#FACC15" stop-opacity=".01"/></linearGradient><linearGradient id="e" x1="1233.09" x2="997.332" y1="139.475" y2="-170.932" gradientUnits="userSpaceOnUse"><stop stop-color="#7E5FFB" stop-opacity=".48"/><stop offset="1" stop-color="#7E5FFB" stop-opacity=".01"/></linearGradient><linearGradient id="g" x1="304.086" x2="68.332" y1="-1.525" y2="-311.932" gradientUnits="userSpaceOnUse"><stop stop-color="#7E5FFB" stop-opacity=".48"/><stop offset="1" stop-color="#7E5FFB" stop-opacity=".01"/></linearGradient><linearGradient id="i" x1="921" x2="798.175" y1="221.988" y2="94.059" gradientUnits="userSpaceOnUse"><stop stop-color="#FACC15"/><stop offset="1" stop-color="#FACC15"/></linearGradient><clipPath id="a"><path fill="#fff" d="M0 0h1104v320H0z"/></clipPath></defs></svg>