<svg xmlns="http://www.w3.org/2000/svg" width="44" height="44" fill="none"><rect width="44" height="44" fill="#7E5FFB" opacity=".16" rx="22"/><path fill="#7E5FFB" fill-opacity=".48" d="M17.25 18.5a1.25 1.25 0 100-2.5 1.25 1.25 0 000 2.5z"/><path stroke="#7656F6" stroke-linecap="round" stroke-linejoin="round" stroke-width="2" d="M27.865 20.135l.549-.55a2 2 0 000-2.827l-1.172-1.172a2 2 0 00-2.828 0L16 24l-1 5 5-1 1.16-1.16"/><path fill="#7E5FFB" fill-opacity=".48" d="M28.722 24.529l-1.521-.752-.752-1.521c-.168-.341-.729-.341-.896 0l-.752 1.52-1.521.753a.498.498 0 000 .896l1.521.752.752 1.52a.5.5 0 00.896 0l.752-1.52 1.521-.752a.498.498 0 000-.896z"/></svg>