<svg xmlns="http://www.w3.org/2000/svg" width="44" height="44"><g fill="none" fill-rule="evenodd"><path fill="#0ACF83" d="M18.071 33C20.24 33 22 31.357 22 29.333v-3.666h-3.929c-2.168 0-3.928 1.642-3.928 3.666S15.903 33 18.07 33z" opacity=".64"/><path fill="#A259FF" d="M14.143 22c0-2.024 1.76-3.667 3.928-3.667H22v7.334h-3.929c-2.168 0-3.928-1.643-3.928-3.667z" opacity=".8"/><path fill="#F24E1E" d="M14.143 14.667c0-2.024 1.76-3.667 3.928-3.667H22v7.333h-3.929c-2.168 0-3.928-1.642-3.928-3.666z" opacity=".88"/><path fill="#FF7262" d="M22 11h3.929c2.168 0 3.928 1.643 3.928 3.667s-1.76 3.666-3.928 3.666H22V11z" opacity=".8"/><path fill="#1ABCFE" d="M29.857 22c0 2.024-1.76 3.667-3.928 3.667C23.76 25.667 22 24.024 22 22s1.76-3.667 3.929-3.667c2.168 0 3.928 1.643 3.928 3.667z" opacity=".64"/></g></svg>