<svg xmlns="http://www.w3.org/2000/svg" width="44" height="44"><g fill="none" fill-rule="evenodd"><path fill="#F16529" d="M11 10l2.002 21.6 8.985 2.4 9.009-2.402L33 10z"/><path fill="#F1F5F9" d="M18.684 23.834H15.88l.39 4.16 5.727 1.506.013-.004V26.74l-.013.003-3.113-.796-.199-2.113zm-.63-6.685h3.955V14.5H15l.066.71.688 7.3h6.255v-2.65h-3.7l-.255-2.712z"/><path fill="#FFF" d="M21.998 17.142v.007h6.751l.057-.596.128-1.342L29 14.5h-7.002v2.642zm0 5.368h3.443l-.325 3.435-3.118.798v2.755l5.73-1.505.042-.447.657-6.973.069-.712h-6.498v2.65z"/></g></svg>