<svg width="48" height="48" xmlns="http://www.w3.org/2000/svg"><path d="M36.986 16.882c.01.035.014.07.014.106v5.581c0 .146-.077.28-.202.353l-4.637 2.697v5.345c0 .146-.077.28-.201.353l-9.679 5.629c-.022.013-.046.02-.07.03-.01.002-.018.008-.028.01a.401.401 0 0 1-.206 0c-.011-.003-.021-.009-.032-.013-.022-.008-.045-.015-.066-.027l-9.677-5.629a.408.408 0 0 1-.202-.353V14.222a.42.42 0 0 1 .014-.107c.003-.012.01-.023.014-.034.008-.022.015-.043.026-.063.007-.014.019-.024.028-.036.011-.017.022-.033.035-.048.012-.011.027-.02.04-.03.015-.012.028-.026.044-.035l4.84-2.815a.4.4 0 0 1 .402 0l4.839 2.815c.017.01.03.023.045.034l.04.03c.013.016.023.032.035.049.009.012.02.022.028.036.011.02.018.041.026.063l.014.034c.01.035.014.07.014.107v10.457l4.032-2.345v-5.346c0-.036.005-.072.014-.106l.014-.035c.008-.021.015-.043.026-.063.008-.013.019-.024.028-.036.012-.016.022-.033.036-.047.011-.012.026-.02.039-.03.015-.013.028-.026.044-.036l4.84-2.814a.4.4 0 0 1 .403 0l4.838 2.814c.017.01.03.023.045.035l.04.03c.013.015.023.032.035.048.01.012.02.023.028.036.011.02.018.042.026.063l.014.035Zm-.793 5.452v-4.641l-1.693.984-2.339 1.361v4.64l4.033-2.344Zm-4.838 8.395v-4.644l-2.301 1.327-6.57 3.789v4.687l8.87-5.16ZM12.807 14.926V30.73l8.87 5.159V31.2l-4.634-2.65h-.002l-.002-.001c-.015-.01-.028-.023-.043-.034-.013-.01-.027-.018-.038-.03l-.001-.001c-.013-.013-.022-.028-.033-.043-.01-.013-.023-.025-.03-.04h-.001c-.01-.016-.015-.034-.021-.052-.007-.015-.015-.03-.02-.046-.004-.02-.005-.04-.007-.06-.002-.015-.007-.03-.007-.045V17.272L14.5 15.91l-1.693-.983Zm4.435-3.049-4.031 2.345 4.03 2.344 4.031-2.345-4.03-2.344Zm2.097 14.63 2.338-1.36v-10.22l-1.693.984-2.339 1.36v10.222l1.694-.985Zm12.42-11.863-4.032 2.344 4.031 2.345 4.03-2.345-4.03-2.344Zm-.404 5.394-2.34-1.36-1.692-.985v4.64l2.338 1.36 1.694.986v-4.641ZM22.08 30.496l5.912-3.41 2.956-1.704-4.028-2.342-4.638 2.697-4.227 2.458 4.025 2.301Z" fill="#FF4237" fill-rule="evenodd"/></svg>