<svg xmlns="http://www.w3.org/2000/svg" xmlns:xlink="http://www.w3.org/1999/xlink" width="44" height="44"><defs><linearGradient id="b" x1="49.982%" x2="50.028%" y1="73.406%" y2="-.032%"><stop offset="0%" stop-color="#334155"/><stop offset="100%" stop-color="#FFF"/></linearGradient><linearGradient id="d" x1="87.757%" x2="25.111%" y1="90.97%" y2="50%"><stop offset="0%" stop-color="#334155"/><stop offset="100%" stop-color="#FFF"/></linearGradient><filter id="a" width="838.5%" height="838.5%" x="-369.2%" y="-369.2%" filterUnits="objectBoundingBox"><feGaussianBlur in="SourceGraphic" stdDeviation="32"/></filter><path id="c" d="M2.187 0l11.609 14.953c-.434.382-.892.736-1.374 1.058L1.75 2.222v8.174H0V0"/></defs><g fill="none" fill-rule="evenodd"><path fill="#FFF" d="M22 9c7.18 0 13 5.82 13 13s-5.82 13-13 13S9 29.18 9 22 14.82 9 22 9" filter="url(#a)"/><path fill="#334155" d="M22 9c7.18 0 13 5.82 13 13s-5.82 13-13 13S9 29.18 9 22 14.82 9 22 9"/><g transform="translate(16.8 16.8)"><path fill="url(#b)" d="M8.811 10.4h1.734V0H8.811z"/><mask id="e" fill="#fff"><use xlink:href="#c"/></mask><path fill="url(#d)" d="M13.796 14.953L2.187 0H0v10.396h1.75V2.222l10.672 13.789c.482-.322.94-.676 1.374-1.058" mask="url(#e)"/></g></g></svg>