<svg xmlns="http://www.w3.org/2000/svg" width="44" height="44"><g fill="#26C0F1" fill-rule="evenodd"><path d="M31.113 17.578c3.056 1.05 5.03 2.696 5.03 4.398 0 1.775-2.11 3.51-5.352 4.584a18.36 18.36 0 01-.527.164c.064.257.122.509.17.756.64 3.23.147 5.886-1.37 6.762-1.469.85-3.843.016-6.247-2.05a18.621 18.621 0 01-.764-.698c-.198.19-.395.372-.591.544-2.482 2.167-5.03 3.066-6.55 2.192-1.47-.848-1.932-3.32-1.34-6.433.063-.328.137-.665.222-1.009a16.843 16.843 0 01-.764-.238c-3.12-1.066-5.173-2.822-5.173-4.574 0-1.695 1.913-3.33 4.907-4.373a18.71 18.71 0 011.047-.33 20.21 20.21 0 01-.209-.936c-.62-3.168-.184-5.698 1.29-6.551 1.538-.89 4.098.065 6.653 2.331.156.139.312.283.468.433.235-.226.47-.443.704-.646 2.438-2.119 4.851-3.006 6.327-2.156 1.538.887 1.99 3.58 1.3 6.923-.042.203-.09.41-.14.62.312.09.616.187.91.287zm-2.673-6.784c-.89-.511-2.84.205-4.929 2.021-.216.188-.434.387-.651.596a28.22 28.22 0 012.391 2.981c1.335.125 2.609.326 3.782.597.047-.19.09-.378.128-.562.595-2.886.226-5.087-.721-5.633zm-2.493 13.482c.442-.765.848-1.531 1.215-2.287a39.597 39.597 0 00-1.219-2.268 36.351 36.351 0 00-1.363-2.174 33.992 33.992 0 00-5.156 0 33.999 33.999 0 00-2.574 4.459 34.278 34.278 0 002.59 4.468c.824.053 1.68.08 2.56.08.884 0 1.75-.03 2.591-.09.46-.69.914-1.423 1.356-2.188zm1.867-.894a39.883 39.883 0 01-1.69 2.935 25.522 25.522 0 002.64-.45 25.398 25.398 0 00-.95-2.485zm-5.767 6.382a25.88 25.88 0 001.66-2.04 39.889 39.889 0 01-3.361.005 26.963 26.963 0 001.701 2.035zM17.9 26.338a35.944 35.944 0 01-1.69-2.913c-.36.851-.667 1.69-.917 2.496.807.174 1.68.314 2.607.417zm-.893-7.214c.28-.485.57-.96.867-1.423-.896.111-1.758.259-2.564.439.246.792.546 1.612.9 2.446.251-.49.518-.977.797-1.462zm5.007-4.85a26.909 26.909 0 00-1.678 2.007 35.522 35.522 0 013.343.001 25.74 25.74 0 00-1.665-2.008zm4.976 4.842c.285.493.557.984.814 1.47.358-.836.66-1.652.905-2.433a26.642 26.642 0 00-2.58-.45c.294.458.582.93.861 1.413zm-12.201-3.01c.056.284.121.575.195.87a29.418 29.418 0 013.774-.585 28.926 28.926 0 012.41-2.98 15.443 15.443 0 00-.425-.391c-2.205-1.957-4.298-2.737-5.244-2.19-.888.515-1.241 2.562-.71 5.276zm-1.368 9.302c.225.075.458.148.699.218a29.236 29.236 0 011.396-3.62 28.828 28.828 0 01-1.38-3.57c-.337.096-.662.199-.972.307-2.562.892-4.098 2.204-4.098 3.233 0 .484.355 1.08 1.056 1.68.781.669 1.92 1.28 3.3 1.752zm4.08 7.701c.97-.342 2.07-1.022 3.167-1.98.178-.157.358-.322.538-.496a29.518 29.518 0 01-2.427-2.998 28.273 28.273 0 01-3.812-.551c-.08.32-.149.634-.207.938-.506 2.663-.134 4.648.758 5.161.42.241 1.112.233 1.984-.074zm11.749-5.396a14.716 14.716 0 00-.153-.682c-1.172.27-2.464.468-3.83.59a28.557 28.557 0 01-2.372 3.008c.238.228.475.445.71.647 2.057 1.767 3.964 2.438 4.855 1.921.418-.24.757-.846.926-1.753.187-1.01.147-2.301-.136-3.73zm1.162-2.299c2.799-.927 4.524-2.345 4.524-3.438 0-1.025-1.598-2.356-4.214-3.257a21.99 21.99 0 00-.841-.265 28.24 28.24 0 01-1.377 3.529 28.57 28.57 0 011.433 3.579c.161-.047.32-.097.475-.148z"/><path d="M21.935 19.306c1.458 0 2.64 1.207 2.64 2.694 0 1.487-1.182 2.694-2.64 2.694-1.457 0-2.64-1.207-2.64-2.694 0-1.487 1.183-2.694 2.64-2.694"/></g></svg>