<svg width="36" height="36" viewBox="0 0 36 36" fill="none" xmlns="http://www.w3.org/2000/svg">
<rect width="36" height="36" rx="8" fill="#53CD52"/>
<circle cx="18" cy="18" r="11.25" fill="white"/>
<path d="M16.5409 23.952C16.8404 23.952 17.0772 23.8196 17.2444 23.562L23.8259 13.1986C23.9512 12.9966 24 12.8434 24 12.6832C24 12.3002 23.7493 12.0494 23.3663 12.0494C23.0877 12.0494 22.9344 12.14 22.7673 12.4046L16.5131 22.371L13.2676 18.1226C13.0934 17.8788 12.9193 17.7813 12.6686 17.7813C12.2716 17.7813 12 18.0529 12 18.436C12 18.5962 12.0696 18.7773 12.202 18.9444L15.8166 23.548C16.0255 23.8196 16.2414 23.952 16.5409 23.952Z" fill="#32AD31"/>
</svg>
