<svg width="36" height="36" viewBox="0 0 36 36" fill="none" xmlns="http://www.w3.org/2000/svg">
<rect y="0.000488281" width="36" height="36" rx="8" fill="#FEC84B"/>
<path d="M16.268 8.03174C17.0378 6.6984 18.9622 6.6984 19.732 8.03174L29.6237 25.1646C30.3935 26.4979 29.4312 28.1646 27.8916 28.1646H8.10836C6.56876 28.1646 5.60651 26.4979 6.37631 25.1646L16.268 8.03174Z" fill="white"/>
<path d="M16.6027 23.4905C16.3147 23.4905 16.0938 23.2829 16.0938 22.9949C16.0938 22.727 16.3147 22.5061 16.6027 22.5061H17.4531V19.3587H16.7165C16.4353 19.3587 16.2143 19.1511 16.2143 18.8632C16.2143 18.5954 16.4353 18.3744 16.7165 18.3744H18.0156C18.3705 18.3744 18.558 18.6289 18.558 19.0038V22.5061H19.4085C19.6964 22.5061 19.9174 22.727 19.9174 22.9949C19.9174 23.2829 19.6964 23.4905 19.4085 23.4905H16.6027ZM17.7478 17.236C17.2456 17.236 16.8437 16.8342 16.8437 16.3253C16.8437 15.8163 17.2456 15.4146 17.7478 15.4146C18.25 15.4146 18.6451 15.8163 18.6451 16.3253C18.6451 16.8342 18.25 17.236 17.7478 17.236Z" fill="#FEC84B"/>
</svg>
