<svg width="36" height="36" viewBox="0 0 36 36" fill="none" xmlns="http://www.w3.org/2000/svg">
<rect y="0.000488281" width="36" height="36" rx="8" fill="#4D4D4D"/>
<circle cx="18" cy="18.0005" r="11.25" fill="white"/>
<path fill-rule="evenodd" clip-rule="evenodd" d="M25 18.0005C25 21.8231 21.8294 25.0005 18 25.0005C14.1775 25.0005 11 21.8231 11 18.0005C11 14.1711 14.1706 11.0005 17.9931 11.0005C21.8226 11.0005 25 14.1711 25 18.0005ZM16.2448 21.4657C16.2448 21.7608 16.4713 21.9736 16.7664 21.9736H19.6419C19.937 21.9736 20.1634 21.7608 20.1634 21.4657C20.1634 21.1912 19.937 20.9648 19.6419 20.9648H18.7703V17.3755C18.7703 16.9912 18.5781 16.7304 18.2144 16.7304H16.883C16.5948 16.7304 16.3683 16.9569 16.3683 17.2314C16.3683 17.5265 16.5948 17.7393 16.883 17.7393H17.6379V20.9648H16.7664C16.4713 20.9648 16.2448 21.1912 16.2448 21.4657ZM17.0134 14.6304C17.0134 15.152 17.4252 15.5638 17.9399 15.5638C18.4546 15.5638 18.8595 15.152 18.8595 14.6304C18.8595 14.1089 18.4546 13.6971 17.9399 13.6971C17.4252 13.6971 17.0134 14.1089 17.0134 14.6304Z" fill="#4D4D4D"/>
</svg>
