<svg width="36" height="36" viewBox="0 0 36 36" fill="none" xmlns="http://www.w3.org/2000/svg">
<rect y="0.000488281" width="36" height="36" rx="8" fill="#0066CC"/>
<circle cx="18" cy="18.0005" r="11.25" fill="white"/>
<path d="M15.889 23.4575C15.4612 23.4575 15.1328 23.149 15.1328 22.7212C15.1328 22.3231 15.4612 21.9948 15.889 21.9948H17.1527V17.3182H16.0582C15.6403 17.3182 15.3119 17.0097 15.3119 16.5819C15.3119 16.1839 15.6403 15.8555 16.0582 15.8555H17.9885C18.5159 15.8555 18.7945 16.2337 18.7945 16.7908V21.9948H20.0582C20.486 21.9948 20.8144 22.3231 20.8144 22.7212C20.8144 23.149 20.486 23.4575 20.0582 23.4575H15.889ZM17.5906 14.164C16.8443 14.164 16.2472 13.567 16.2472 12.8108C16.2472 12.0545 16.8443 11.4575 17.5906 11.4575C18.3368 11.4575 18.9239 12.0545 18.9239 12.8108C18.9239 13.567 18.3368 14.164 17.5906 14.164Z" fill="#0066CC"/>
</svg>
