<svg width="36" height="36" viewBox="0 0 36 36" fill="none" xmlns="http://www.w3.org/2000/svg">
<rect width="36" height="36" rx="8" fill="#F04438"/>
<path d="M16.268 8.03125C17.0378 6.69791 18.9622 6.69792 19.732 8.03125L29.6237 25.1641C30.3935 26.4974 29.4312 28.1641 27.8916 28.1641H8.10836C6.56876 28.1641 5.60651 26.4974 6.37631 25.1641L16.268 8.03125Z" fill="white"/>
<path d="M16.6027 23.49C16.3147 23.49 16.0938 23.2824 16.0938 22.9944C16.0938 22.7265 16.3147 22.5056 16.6027 22.5056H17.4531V19.3583H16.7165C16.4353 19.3583 16.2143 19.1507 16.2143 18.8627C16.2143 18.5949 16.4353 18.3739 16.7165 18.3739H18.0156C18.3705 18.3739 18.558 18.6284 18.558 19.0033V22.5056H19.4085C19.6964 22.5056 19.9174 22.7265 19.9174 22.9944C19.9174 23.2824 19.6964 23.49 19.4085 23.49H16.6027ZM17.7478 17.2355C17.2456 17.2355 16.8437 16.8337 16.8437 16.3248C16.8437 15.8158 17.2456 15.4141 17.7478 15.4141C18.25 15.4141 18.6451 15.8158 18.6451 16.3248C18.6451 16.8337 18.25 17.2355 17.7478 17.2355Z" fill="#F04438"/>
</svg>
