<svg data-v-0dd9719b="" version="1.0" xmlns="http://www.w3.org/2000/svg" xmlns:xlink="http://www.w3.org/1999/xlink" width="100%" height="100%" viewBox="0 0 340.000000 250.000000" preserveAspectRatio="xMidYMid meet" color-interpolation-filters="sRGB" style="margin: auto;"><g data-v-0dd9719b="" fill="#FA4032" class="mojosvg mojo-g" transform="translate(52.12532806407158,101.05211067199707)"><g class="iconsvg-imagesvg" transform="translate(0,0)"><g><rect fill="#FA4032" fill-opacity="0" stroke-width="2" x="0" y="0" width="60" height="47.89577878536305" class="image-rect"></rect> <svg x="0" y="0" width="60" height="47.89577878536305" filtersec="colorsb4851670195" class="image-svg-svg primary" style="overflow: visible;"><svg xmlns="http://www.w3.org/2000/svg" viewBox="0.0032072067260742188 -0.023705730214715004 130.88385009765625 104.47969818115234"><title>资源 61</title><path d="M79.34 99.73c-9.67 7.92-25 5.64-32.94-5C36.16 80.88 26 67 15.86 53.08 12.07 47.92 8.22 42.8 4.51 37.59-5.5 23.52 2 4 18.77.55a22.45 22.45 0 0 1 19.06 4.34C37.7 6 36.75 6.53 36.07 7.22c-7.71 7.75-9.13 20.09-3 29 5.83 8.45 12 16.69 18.06 25 5.77 7.88 11.63 15.7 17.41 23.58 3.66 4.96 7.21 9.96 10.8 14.93z" fill="#FA4032"></path><path d="M79.34 99.73c-3.59-5-7.14-10-10.76-14.91-5.78-7.88-11.64-15.7-17.41-23.58C45.1 53 38.94 44.71 33.11 36.26c-6.17-8.95-4.75-21.29 3-29 .68-.69 1.63-1.21 1.76-2.33h.94c2 2.8 4.28 5.42 6.3 8.23 7 9.75 14.13 19.39 21.25 29.05 6 8.12 12.07 16.18 18 24.35a23.21 23.21 0 0 1 4.56 12.92c.18 3.89-.84 7.51-1.58 11.22-2.25 3.4-4.42 6.84-8 9.03z" fill="#FA812F"></path><path d="M87.29 90.69c.71-3.69 1.76-7.33 1.58-11.22a23.21 23.21 0 0 0-4.56-12.92c-5.92-8.17-12-16.23-18-24.35-7.11-9.66-14.25-19.3-21.24-29.05-2-2.81-4.28-5.43-6.3-8.23C48.37-3 63.78-1.14 71.49 9c4.83 6.35 9.51 12.86 14.23 19.26.56.75.85 1.88 2.07 2 1.35 3.74 4.28 6.38 6.52 9.51 1 2.19 2.69 3.92 4.11 5.83 7.32 9.86 7.33 20.5-.09 30.37-3.69 4.87-7.07 10.03-11.04 14.72z" fill="#FAB12F"></path><path d="M94.31 39.73c-2.24-3.13-5.17-5.77-6.52-9.51a40.4 40.4 0 0 1-1.13-8.85 22.13 22.13 0 0 1 44.22 0c.19 8.77-3.46 15.57-10.95 19.93-7.69 4.47-15.56 4.06-23.22-.47-.71-.41-1.4-1.15-2.4-1.1z" fill="#FAB12F"></path></svg></svg> <!----></g></g><g transform="translate(67,4.602888107299805)"><g class="tp-name"><g transform="translate(0, 0)"><g data-gra="path-name" fill="#FA4032" transform="translate(0,3)"><g transform="scale(1)"><path d="M25.51 0L15.67 0L1.75-36.42L11.25-36.42L20.53-10.41L29.86-36.42L39.42-36.42L25.51 0Z" transform="translate(-1.7531603459747171, 38.119998931884766)"></path></g></g></g><g transform="translate(41.66467065868263, 0)"><g data-gra="path-name" fill="#FA4032" transform="translate(0,3)"><g transform="scale(1)"><path d="M14.59-31.05L4.69-31.05L4.69-37.89L14.59-37.89L14.59-31.05ZM14.53 0L5.43 0L5.43-20.08L1.47-20.08L2.26-26.81L14.53-26.81L14.53 0Z" transform="translate(-1.4703925482368594, 38.119998931884766)"></path></g></g></g><g transform="translate(58.78509647371922, 0)"><g data-gra="path-name" fill="#FA4032" transform="translate(0,3)"><g transform="scale(1)"><path d="M17.25 0.57L17.25 0.57Q10.24 0.57 5.99-2.91Q1.75-6.39 1.75-13.40L1.75-13.40Q1.75-19.79 5.26-23.58Q8.77-27.37 15.78-27.37L15.78-27.37Q22.17-27.37 25.68-24.09Q29.18-20.81 29.18-15.27L29.18-15.27L29.18-10.46L10.18-10.46Q10.80-7.80 13.09-6.76Q15.38-5.71 19.34-5.71L19.34-5.71Q21.55-5.71 23.84-6.11Q26.13-6.50 27.65-7.13L27.65-7.13L27.65-1.19Q25.73-0.28 23.07 0.14Q20.42 0.57 17.25 0.57ZM10.18-15.72L10.18-15.72L21.26-15.72L21.26-16.91Q21.26-18.89 20.08-20.05Q18.89-21.21 16.06-21.21L16.06-21.21Q12.78-21.21 11.48-19.88Q10.18-18.55 10.18-15.72Z" transform="translate(-1.7531603459747171, 38.119998931884766)"></path></g></g></g><g transform="translate(90.21357285429141, 0)"><g data-gra="path-name" fill="#FA812F" transform="translate(0,3)"><g transform="scale(1)"><g transform="translate(-2.880000114440918, 38.119998931884766)"><path d="M19.68 0.57L19.68 0.57Q16.97 0.57 14.93-0.14 12.89-0.85 11.25-2.26L11.25-2.26 10.8 0 2.88 0 2.88-38.12 11.99-38.12 11.99-25.56Q13.52-26.47 15.44-26.92 17.36-27.37 19.4-27.37L19.4-27.37Q25.28-27.37 28.67-24.12 32.07-20.87 32.07-13.63L32.07-13.63Q32.07-6.39 28.73-2.91 25.39 0.57 19.68 0.57ZM17.08-6.05L17.08-6.05Q20.13-6.05 21.46-7.89 22.79-9.73 22.79-13.57L22.79-13.57Q22.79-17.53 21.41-19.12 20.02-20.7 17.08-20.7L17.08-20.7Q13.86-20.7 11.99-19L11.99-19 11.99-8.09Q14.03-6.05 17.08-6.05Z" data-index="1" data-main="1" data-type="0"></path></g></g></g></g><g transform="translate(123.4035714810004, 0)"><g data-gra="path-name" fill="#FAB12F" transform="translate(0,3)"><g transform="scale(1)"><g transform="translate(-1.75, 38.119998931884766)"><path d="M11.25 0.57L11.25 0.57Q8.71 0.57 6.53-0.34 4.35-1.24 3.05-3.14 1.75-5.03 1.75-7.86L1.75-7.86Q1.75-11.99 4.55-14.34 7.35-16.68 12.95-16.68L12.95-16.68 20.42-16.68 20.42-17.31Q20.42-19.34 19.06-20.22 17.7-21.09 13.97-21.09L13.97-21.09Q9.39-21.09 4.98-19.68L4.98-19.68 4.98-25.56Q6.96-26.35 9.81-26.86 12.67-27.37 15.83-27.37L15.83-27.37Q22.06-27.37 25.59-24.83 29.13-22.28 29.13-16.74L29.13-16.74 29.13 0 21.15 0 20.7-2.26Q19.23-0.9 16.94-0.17 14.65 0.57 11.25 0.57ZM14.14-5.03L14.14-5.03Q16.29-5.03 17.87-5.77 19.45-6.5 20.42-7.63L20.42-7.63 20.42-11.42 13.97-11.42Q9.95-11.42 9.95-8.2L9.95-8.2Q9.95-6.73 10.97-5.88 11.99-5.03 14.14-5.03Z" data-index="1" data-main="1" data-type="0"></path></g></g></g></g><g transform="translate(154.783570641767, 0)"><g data-gra="path-name" fill="#FAB12F" transform="translate(0,3)"><g transform="scale(1)"><path d="M11.14 0.57L11.14 0.57Q6.73 0.57 4.81-1.36Q2.88-3.28 2.88-7.52L2.88-7.52L2.88-38.12L11.99-38.12L11.99-8.43Q11.99-7.13 12.53-6.65Q13.06-6.16 14.14-6.16L14.14-6.16Q15.67-6.16 16.85-6.56L16.85-6.56L16.85-0.40Q15.55 0.11 14.28 0.34Q13.01 0.57 11.14 0.57Z" transform="translate(-2.8842315369261473, 38.119998931884766)"></path></g></g></g></g></g></g><defs v-gra="od"></defs></svg>